<mxfile host="app.diagrams.net" modified="2021-03-20T15:38:15.102Z" agent="5.0 (Windows NT 10.0; WOW64) AppleWebKit/537.36 (KHTML, like Gecko) Chrome/78.0.3904.108 Safari/537.36" etag="HHRhwQm7rv6O1vApHi8p" version="14.4.8" type="github">
  <diagram id="dh1iSAnI9LNPIimuFHRk" name="第 1 页">
    <mxGraphModel dx="1422" dy="1903" grid="1" gridSize="10" guides="1" tooltips="1" connect="1" arrows="1" fold="1" page="1" pageScale="1" pageWidth="827" pageHeight="1169" math="0" shadow="0">
      <root>
        <mxCell id="0" />
        <mxCell id="1" parent="0" />
        <mxCell id="Or9v4SIIAj_S2g1zX2Sr-3" value="浏览器" style="shape=umlLifeline;perimeter=lifelinePerimeter;whiteSpace=wrap;html=1;container=0;collapsible=0;recursiveResize=0;outlineConnect=0;" parent="1" vertex="1">
          <mxGeometry x="70.33" y="-30" width="99.67" height="810" as="geometry" />
        </mxCell>
        <mxCell id="Or9v4SIIAj_S2g1zX2Sr-7" value="Nginx" style="shape=umlLifeline;perimeter=lifelinePerimeter;whiteSpace=wrap;html=1;container=0;collapsible=0;recursiveResize=0;outlineConnect=0;" parent="1" vertex="1">
          <mxGeometry x="200" y="-30" width="100" height="810" as="geometry" />
        </mxCell>
        <mxCell id="u6yMv0zxOhqang4DAun9-16" value="获取秘钥信息" style="html=1;verticalAlign=bottom;endArrow=block;" parent="1" edge="1">
          <mxGeometry relative="1" as="geometry">
            <mxPoint x="125" y="270" as="sourcePoint" />
            <mxPoint x="385" y="270" as="targetPoint" />
          </mxGeometry>
        </mxCell>
        <mxCell id="u6yMv0zxOhqang4DAun9-53" value="System1&lt;br&gt;Gateway" style="shape=umlLifeline;perimeter=lifelinePerimeter;whiteSpace=wrap;html=1;container=0;collapsible=0;recursiveResize=0;outlineConnect=0;fillColor=#CCFF99;" parent="1" vertex="1">
          <mxGeometry x="340" y="-30" width="100" height="2590" as="geometry" />
        </mxCell>
        <mxCell id="u6yMv0zxOhqang4DAun9-105" value="System1&lt;br&gt;用户系统" style="shape=umlLifeline;perimeter=lifelinePerimeter;whiteSpace=wrap;html=1;container=0;collapsible=0;recursiveResize=0;outlineConnect=0;fillColor=#CCFF99;" parent="1" vertex="1">
          <mxGeometry x="480" y="-30" width="100" height="2590" as="geometry" />
        </mxCell>
        <mxCell id="u6yMv0zxOhqang4DAun9-139" value="" style="html=1;verticalAlign=bottom;endArrow=open;dashed=1;endSize=8;entryX=0.9;entryY=0.04;entryDx=0;entryDy=0;entryPerimeter=0;" parent="1" source="3CqKeIGA3ldGCkDwYFLd-2" target="tfi55ZKblpoJ1w2pQm7T-1" edge="1">
          <mxGeometry relative="1" as="geometry">
            <mxPoint x="609.67" y="318" as="targetPoint" />
            <mxPoint x="330" y="323" as="sourcePoint" />
          </mxGeometry>
        </mxCell>
        <mxCell id="8rMJmTV3KKsouPYQTct0-5" value="" style="html=1;points=[];perimeter=orthogonalPerimeter;" parent="1" vertex="1">
          <mxGeometry x="245" y="50" width="10" height="40" as="geometry" />
        </mxCell>
        <mxCell id="8rMJmTV3KKsouPYQTct0-6" value="System 1 登录页面" style="html=1;verticalAlign=bottom;endArrow=block;entryX=0;entryY=0;" parent="1" source="Or9v4SIIAj_S2g1zX2Sr-3" target="8rMJmTV3KKsouPYQTct0-5" edge="1">
          <mxGeometry relative="1" as="geometry">
            <mxPoint x="175" y="50" as="sourcePoint" />
          </mxGeometry>
        </mxCell>
        <mxCell id="8rMJmTV3KKsouPYQTct0-7" value="Vue App" style="html=1;verticalAlign=bottom;endArrow=open;dashed=1;endSize=8;exitX=0;exitY=0.95;" parent="1" source="8rMJmTV3KKsouPYQTct0-5" target="Or9v4SIIAj_S2g1zX2Sr-3" edge="1">
          <mxGeometry relative="1" as="geometry">
            <mxPoint x="175" y="126" as="targetPoint" />
          </mxGeometry>
        </mxCell>
        <mxCell id="8rMJmTV3KKsouPYQTct0-8" value="没有session&lt;br&gt;获取用户信息失败" style="html=1;points=[];perimeter=orthogonalPerimeter;" parent="1" vertex="1">
          <mxGeometry x="385" y="160" width="10" height="50" as="geometry" />
        </mxCell>
        <mxCell id="8rMJmTV3KKsouPYQTct0-9" value="前端路由&lt;br&gt;登录页面前的拦截器中&lt;br&gt;通过sessionID&lt;br&gt;到Gateway获取用户信息" style="html=1;verticalAlign=bottom;endArrow=block;entryX=0;entryY=0;" parent="1" source="Or9v4SIIAj_S2g1zX2Sr-3" target="8rMJmTV3KKsouPYQTct0-8" edge="1">
          <mxGeometry relative="1" as="geometry">
            <mxPoint x="665" y="90" as="sourcePoint" />
          </mxGeometry>
        </mxCell>
        <mxCell id="8rMJmTV3KKsouPYQTct0-10" value="" style="html=1;verticalAlign=bottom;endArrow=open;dashed=1;endSize=8;exitX=0;exitY=0.95;" parent="1" source="8rMJmTV3KKsouPYQTct0-8" edge="1">
          <mxGeometry relative="1" as="geometry">
            <mxPoint x="125" y="208" as="targetPoint" />
          </mxGeometry>
        </mxCell>
        <mxCell id="8rMJmTV3KKsouPYQTct0-11" value="获取用户信息失败&lt;br&gt;路由到登录页面" style="html=1;points=[];perimeter=orthogonalPerimeter;" parent="1" vertex="1">
          <mxGeometry x="115.33" y="200" width="10" height="70" as="geometry" />
        </mxCell>
        <mxCell id="8rMJmTV3KKsouPYQTct0-25" value="" style="html=1;points=[];perimeter=orthogonalPerimeter;" parent="1" vertex="1">
          <mxGeometry x="385" y="390" width="10" height="40" as="geometry" />
        </mxCell>
        <mxCell id="8rMJmTV3KKsouPYQTct0-26" value="登陆请求" style="html=1;verticalAlign=bottom;endArrow=block;exitX=1;exitY=1;exitDx=0;exitDy=0;exitPerimeter=0;" parent="1" source="tfi55ZKblpoJ1w2pQm7T-1" target="8rMJmTV3KKsouPYQTct0-25" edge="1">
          <mxGeometry relative="1" as="geometry">
            <mxPoint x="170" y="441.20000000000005" as="sourcePoint" />
            <mxPoint x="320" y="391" as="targetPoint" />
          </mxGeometry>
        </mxCell>
        <mxCell id="8rMJmTV3KKsouPYQTct0-28" value="鉴权成功后&lt;br&gt;将用户信息在前端缓存&lt;br&gt;并设置好cookie&lt;br&gt;然后跳转到首页" style="html=1;points=[];perimeter=orthogonalPerimeter;" parent="1" vertex="1">
          <mxGeometry x="115" y="500" width="10" height="90" as="geometry" />
        </mxCell>
        <mxCell id="tfi55ZKblpoJ1w2pQm7T-1" value="通过密钥信息加密密码&lt;br&gt;用用户名和加密后的密码&lt;br&gt;发起登陆请求" style="html=1;points=[];perimeter=orthogonalPerimeter;" parent="1" vertex="1">
          <mxGeometry x="115" y="320" width="10" height="70" as="geometry" />
        </mxCell>
        <mxCell id="3CqKeIGA3ldGCkDwYFLd-2" value="" style="html=1;points=[];perimeter=orthogonalPerimeter;" parent="1" vertex="1">
          <mxGeometry x="385" y="270" width="10" height="60" as="geometry" />
        </mxCell>
        <mxCell id="3CqKeIGA3ldGCkDwYFLd-6" value="" style="html=1;verticalAlign=bottom;endArrow=block;entryX=0;entryY=0;" parent="1" edge="1">
          <mxGeometry relative="1" as="geometry">
            <mxPoint x="525" y="340" as="sourcePoint" />
            <mxPoint x="525" y="340" as="targetPoint" />
          </mxGeometry>
        </mxCell>
        <mxCell id="iATms1AvD5V2cRTIikKY-4" value="" style="html=1;points=[];perimeter=orthogonalPerimeter;" vertex="1" parent="1">
          <mxGeometry x="525" y="430" width="10" height="30" as="geometry" />
        </mxCell>
        <mxCell id="iATms1AvD5V2cRTIikKY-5" value="查询用户信息" style="html=1;verticalAlign=bottom;endArrow=block;entryX=0;entryY=0;" edge="1" target="iATms1AvD5V2cRTIikKY-4" parent="1" source="8rMJmTV3KKsouPYQTct0-25">
          <mxGeometry relative="1" as="geometry">
            <mxPoint x="455" y="445" as="sourcePoint" />
          </mxGeometry>
        </mxCell>
        <mxCell id="iATms1AvD5V2cRTIikKY-6" value="" style="html=1;verticalAlign=bottom;endArrow=open;dashed=1;endSize=8;exitX=0;exitY=0.95;entryX=1;entryY=0;entryDx=0;entryDy=0;entryPerimeter=0;" edge="1" source="iATms1AvD5V2cRTIikKY-4" parent="1" target="iATms1AvD5V2cRTIikKY-7">
          <mxGeometry relative="1" as="geometry">
            <mxPoint x="430" y="478" as="targetPoint" />
          </mxGeometry>
        </mxCell>
        <mxCell id="iATms1AvD5V2cRTIikKY-7" value="鉴权" style="html=1;points=[];perimeter=orthogonalPerimeter;" vertex="1" parent="1">
          <mxGeometry x="385" y="460" width="10" height="50" as="geometry" />
        </mxCell>
        <mxCell id="iATms1AvD5V2cRTIikKY-9" value="返回鉴权成功" style="html=1;verticalAlign=bottom;endArrow=open;dashed=1;endSize=8;exitX=0;exitY=0.95;entryX=1;entryY=0.078;entryDx=0;entryDy=0;entryPerimeter=0;" edge="1" source="iATms1AvD5V2cRTIikKY-7" parent="1" target="8rMJmTV3KKsouPYQTct0-28">
          <mxGeometry relative="1" as="geometry">
            <mxPoint x="180" y="508" as="targetPoint" />
          </mxGeometry>
        </mxCell>
      </root>
    </mxGraphModel>
  </diagram>
</mxfile>
